#!OML:ASF I:\Actors\actors\Patient Classification 2\Patient 1\Session 1\actor1.ASF
:FULLY-SPECIFIED
:DEGREES
93
root -0.960527 18.1547 5.9096 0.481745 -3.72089 -4.55696
lowerback 1.17236 0.423602 2.76333
upperback -0.871706 0.637221 1.49136
thorax -1.53805 0.296726 -0.0355758
lowerneck -10.0243 -1.65992 -3.30209
upperneck 22.8898 -2.79589 4.67191
head 8.9086 -1.12148 1.84965
rclavicle 8.6813e-015 1.14301e-015
rhumerus -45.9976 -5.39946 -86.1221
rradius 40.3032
rwrist 22.4987
rhand -4.82718 -28.083
rfingers 7.12502
rthumb 20.9595 -56.9705
lclavicle 8.6813e-015 1.14301e-015
lhumerus -41.102 6.41952 89.2027
lradius 33.4928
lwrist -3.66866
lhand -8.7978 -30.2591
lfingers 7.12502
lthumb 17.1411 -0.995197
rfemur 0 0 0
rtibia 0
rfoot 0 0
rtoes 0
lfemur 18.0741 -8.27195 -13.3757
ltibia -17.9217
lfoot -6.38191 24.6553
ltoes -9.79835
94
root -0.960476 18.1548 5.90915 0.488914 -3.71691 -4.56564
lowerback 1.17576 0.44184 2.78066
upperback -0.875459 0.66204 1.48615
thorax -1.54305 0.308829 -0.0512492
lowerneck -9.99015 -1.66451 -3.27182
upperneck 22.8602 -2.80533 4.66198
head 8.89192 -1.12491 1.83999
rclavicle -2.29651e-014 -1.15295e-014
rhumerus -46.0144 -5.4629 -86.1159
rradius 40.3199
rwrist 22.4976
rhand -4.78614 -28.0823
rfingers 7.12502
rthumb 20.9989 -56.9655
lclavicle -2.29651e-014 -1.15295e-014
lhumerus -42.0219 7.54326 88.6621
lradius 35.2254
lwrist -4.94322
lhand -8.14978 -29.742
lfingers 7.12502
lthumb 17.7647 -0.533421
rfemur 0 0 0
rtibia 0
rfoot 0 0
rtoes 0
lfemur 18.0677 -8.24776 -13.3598
ltibia -17.9346
lfoot -6.34625 24.6509
ltoes -9.79839
95
root -0.960744 18.1537 5.90868 0.482005 -3.72313 -4.58932
lowerback 1.1893 0.46397 2.80697
upperback -0.868615 0.692377 1.4849
thorax -1.54269 0.323738 -0.0680677
lowerneck -9.97549 -1.66825 -3.20904
upperneck 22.8399 -2.8137 4.6262
head 8.88124 -1.12739 1.81609
rclavicle -4.07276e-015 -3.42904e-015
rhumerus -46.0135 -5.53497 -86.1038
rradius 40.3241
rwrist 22.5153
rhand -4.75332 -28.0109
rfingers 7.12502
rthumb 21.0304 -56.8906
lclavicle -4.07276e-015 -3.42904e-015
lhumerus -43.1669 7.25213 88.7832
lradius 37.9904
lwrist -4.73468
lhand -7.53741 -28.4541
lfingers 7.12502
lthumb 18.3539 0.700043
rfemur 0 0 0
rtibia 0
rfoot 0 0
rtoes 0
lfemur 18.0876 -8.23584 -13.3323
ltibia -17.9525
lfoot -6.327 24.6579
ltoes -9.71532
96
root -0.960984 18.1531 5.90836 0.479379 -3.72595 -4.59408
lowerback 1.18855 0.466434 2.81258
upperback -0.858544 0.695567 1.49401
thorax -1.53192 0.325503 -0.0618994
lowerneck -9.97658 -1.66623 -3.21301
upperneck 22.8473 -2.80643 4.60977
head 8.88347 -1.12591 1.812
rclavicle -1.08936e-014 -1.54555e-014
rhumerus -45.9942 -5.48081 -86.1097
rradius 40.3051
rwrist 22.4561
rhand -4.82525 -27.9078
rfingers 7.12502
rthumb 20.9613 -56.7951
lclavicle -1.08936e-014 -1.54555e-014
lhumerus -43.1346 7.25299 88.804
lradius 37.9634
lwrist -4.69869
lhand -7.60399 -28.4817
lfingers 7.12502
lthumb 18.2898 0.67839
rfemur 0 0 0
rtibia 0
rfoot 0 0
rtoes 0
lfemur 18.1042 -8.26876 -13.3315
ltibia -17.9731
lfoot -6.34928 24.6906
ltoes -9.59169
97
root -0.960709 18.1528 5.90803 0.475733 -3.72781 -4.58177
lowerback 1.1874 0.459697 2.79994
upperback -0.84853 0.686216 1.509
thorax -1.52152 0.321227 -0.0391921
lowerneck -9.9551 -1.65336 -3.24874
upperneck 22.8414 -2.7786 4.597
head 8.87649 -1.11751 1.81675
rclavicle -4.29251e-015 -1.48592e-014
rhumerus -45.9868 -5.35966 -86.1256
rradius 40.3063
rwrist 22.3389
rhand -4.95608 -27.8707
rfingers 7.12502
rthumb 20.8356 -56.7719
lclavicle -4.29251e-015 -1.48592e-014
lhumerus -43.0985 7.3197 88.8089
lradius 37.925
lwrist -4.67873
lhand -7.616 -28.4775
lfingers 7.12502
lthumb 18.2783 0.683763
rfemur 0 0 0
rtibia 0
rfoot 0 0
rtoes 0
lfemur 18.1101 -8.2385 -13.3401
ltibia -17.9876
lfoot -6.33398 24.6677
ltoes -9.56799
98
root -0.960859 18.1527 5.90798 0.46082 -3.73147 -4.59379
lowerback 1.19019 0.45787 2.80266
upperback -0.831297 0.683614 1.5219
thorax -1.50559 0.32025 -0.027382
lowerneck -9.91698 -1.62717 -3.23509
upperneck 22.8211 -2.73665 4.56371
head 8.85983 -1.10065 1.80754
rclavicle 8.8366e-016 -1.93815e-014
rhumerus -45.9742 -5.3276 -86.1415
rradius 40.3135
rwrist 22.3056
rhand -5.01533 -27.874
rfingers 7.12502
rthumb 20.7787 -56.7814
lclavicle 8.8366e-016 -1.93815e-014
lhumerus -43.0792 7.29791 88.8503
lradius 38.0152
lwrist -4.66431
lhand -7.59073 -28.0628
lfingers 7.12502
lthumb 18.3026 1.09611
rfemur 0 0 0
rtibia 0
rfoot 0 0
rtoes 0
lfemur 18.1227 -8.14281 -13.3154
ltibia -17.9881
lfoot -6.27213 24.5762
ltoes -9.78323
99
root -0.961089 18.1537 5.90821 0.455927 -3.72683 -4.60735
lowerback 1.17881 0.458633 2.80844
upperback -0.817976 0.683942 1.5271
thorax -1.48552 0.320682 -0.0251353
lowerneck -9.90375 -1.61038 -3.19319
upperneck 22.8502 -2.70718 4.49835
head 8.86461 -1.08989 1.78162
rclavicle -8.97404e-015 -6.60959e-015
rhumerus -45.9672 -5.36794 -86.1443
rradius 40.3207
rwrist 22.3447
rhand -4.98989 -27.786
rfingers 7.12502
rthumb 20.8031 -56.6908
lclavicle -8.97404e-015 -6.60959e-015
lhumerus -43.0927 7.22026 88.8874
lradius 38.1267
lwrist -4.70949
lhand -7.5353 -27.7298
lfingers 7.12502
lthumb 18.3559 1.42417
rfemur 0 0 0
rtibia 0
rfoot 0 0
rtoes 0
lfemur 18.1308 -8.14416 -13.3008
ltibia -17.9896
lfoot -6.29497 24.5626
ltoes -9.82513
100
root -0.96099 18.1544 5.90829 0.457399 -3.70919 -4.60052
lowerback 1.17191 0.47043 2.81348
upperback -0.816062 0.69933 1.52006
thorax -1.47921 0.328361 -0.0354634
lowerneck -9.92523 -1.61942 -3.14701
upperneck 22.935 -2.71527 4.42963
head 8.89671 -1.09593 1.75015
rclavicle 1.58562e-015 1.39149e-015
rhumerus -45.9846 -5.4158 -86.1336
rradius 40.3336
rwrist 22.3519
rhand -4.9596 -27.717
rfingers 7.12502
rthumb 20.8322 -56.6186
lclavicle 1.58562e-015 1.39149e-015
lhumerus -43.1289 7.19362 88.8194
lradius 37.9422
lwrist -4.67185
lhand -7.53863 -28.6638
lfingers 7.12502
lthumb 18.3527 0.490392
rfemur 0 0 0
rtibia 0
rfoot 0 0
rtoes 0
lfemur 18.1321 -8.19207 -13.3143
ltibia -17.9965
lfoot -6.335 24.6002
ltoes -9.76676
101
root -0.961 18.1537 5.90822 0.454365 -3.70191 -4.59687
lowerback 1.1764 0.491017 2.81695
upperback -0.809813 0.726864 1.52106
thorax -1.47471 0.342174 -0.0370373
lowerneck -9.96897 -1.6373 -3.13773
upperneck 23.031 -2.74808 4.44365
head 8.93951 -1.10785 1.75053
rclavicle 1.52963e-014 1.59028e-014
rhumerus -45.9851 -5.44953 -86.1065
rradius 40.3282
rwrist 22.356
rhand -4.90456 -27.7921
rfingers 7.12502
rthumb 20.8851 -56.6878
lclavicle 1.52963e-014 1.59028e-014
lhumerus -43.1801 6.94138 88.9351
lradius 38.0532
lwrist -4.47633
lhand -7.57049 -28.5698
lfingers 7.12502
lthumb 18.3221 0.58735
rfemur 0 0 0
rtibia 0
rfoot 0 0
rtoes 0
lfemur 18.1351 -8.21037 -13.3225
ltibia -17.9975
lfoot -6.31643 24.6141
ltoes -9.87833
102
root -0.960574 18.1524 5.9084 0.450775 -3.70474 -4.59945
lowerback 1.17358 0.510692 2.82437
upperback -0.790812 0.752606 1.52508
thorax -1.45305 0.355336 -0.037555
lowerneck -10.0199 -1.65308 -3.15516
upperneck 23.1119 -2.78856 4.52678
head 8.98012 -1.11851 1.77809
rclavicle -3.40885e-016 2.68359e-015
rhumerus -45.9508 -5.50001 -86.0686
rradius 40.2919
rwrist 22.4071
rhand -4.81716 -27.8505
rfingers 7.12502
rthumb 20.9691 -56.737
lclavicle -3.40885e-016 2.68359e-015
lhumerus -43.1755 6.82848 88.9788
lradius 38.0827
lwrist -4.38734
lhand -7.58473 -28.5054
lfingers 7.12502
lthumb 18.3084 0.652996
rfemur 0 0 0
rtibia 0
rfoot 0 0
rtoes 0
lfemur 18.1401 -8.2589 -13.3277
ltibia -17.9973
lfoot -6.32322 24.6506
ltoes -9.72756
